<?xml version="1.0" encoding="UTF-8"?>
<svg xmlns="http://www.w3.org/2000/svg" xmlns:xlink="http://www.w3.org/1999/xlink" version="1.1" width="512" height="512" x="0" y="0" viewBox="0 0 32 32" style="enable-background:new 0 0 512 512" xml:space="preserve" class="">
  <g transform="matrix(1.0599999999999992,0,0,1.0599999999999992,-0.9599846363067499,-0.9600068306922793)">
    <g data-name="user setting">
      <path d="M13.381 13.95a6.35 6.35 0 1 0-6.35-6.35 6.353 6.353 0 0 0 6.35 6.35zm0-11.2a4.85 4.85 0 1 1-4.85 4.85 4.852 4.852 0 0 1 4.85-4.85zM17.448 16.265a.751.751 0 0 0-.457-.958A10.836 10.836 0 0 0 2.551 25.52a.75.75 0 0 0 1.5 0 9.334 9.334 0 0 1 12.44-8.8.751.751 0 0 0 .957-.455zM22.341 20.252a3.028 3.028 0 1 0 3.029 3.028 3.03 3.03 0 0 0-3.029-3.028zm0 4.556a1.528 1.528 0 1 1 1.529-1.528 1.529 1.529 0 0 1-1.529 1.528z" fill="#ffffff" opacity="1" data-original="#000000" class=""/>
      <path d="M28.789 23.706a6.463 6.463 0 0 0 0-.854l.6-1.463a.751.751 0 0 0 .016-.529 7.486 7.486 0 0 0-1.438-2.491.751.751 0 0 0-.466-.25l-1.57-.21a6.453 6.453 0 0 0-.74-.427l-.966-1.254a.751.751 0 0 0-.45-.278 7.446 7.446 0 0 0-2.876 0 .751.751 0 0 0-.45.278l-.967 1.255a6.347 6.347 0 0 0-.74.427l-1.569.209a.751.751 0 0 0-.466.25 7.486 7.486 0 0 0-1.438 2.491.751.751 0 0 0 .016.529l.6 1.465a6.462 6.462 0 0 0 0 .854l-.6 1.463a.751.751 0 0 0-.016.529 7.484 7.484 0 0 0 1.438 2.491.75.75 0 0 0 .466.25l1.57.21a6.471 6.471 0 0 0 .74.427l.966 1.254a.751.751 0 0 0 .45.278 7.443 7.443 0 0 0 2.876 0 .751.751 0 0 0 .45-.278l.967-1.255a6.356 6.356 0 0 0 .74-.427l1.569-.209a.75.75 0 0 0 .466-.25 7.484 7.484 0 0 0 1.441-2.491.751.751 0 0 0-.016-.529zm-1.772 3.286-1.459.2a.748.748 0 0 0-.336.133 5.062 5.062 0 0 1-.821.474.74.74 0 0 0-.283.224l-.9 1.166a5.936 5.936 0 0 1-1.755 0l-.9-1.166a.74.74 0 0 0-.283-.224 5.062 5.062 0 0 1-.821-.474.748.748 0 0 0-.336-.133l-1.459-.2a5.968 5.968 0 0 1-.878-1.52l.56-1.362a.749.749 0 0 0 .053-.357 4.969 4.969 0 0 1 0-.948.749.749 0 0 0-.053-.357l-.561-1.361a5.954 5.954 0 0 1 .878-1.52l1.459-.2a.747.747 0 0 0 .336-.133 5.062 5.062 0 0 1 .821-.474.739.739 0 0 0 .283-.224l.9-1.166a5.931 5.931 0 0 1 1.755 0l.9 1.166a.739.739 0 0 0 .283.224 5.062 5.062 0 0 1 .821.474.747.747 0 0 0 .336.133l1.459.2a5.968 5.968 0 0 1 .878 1.52l-.56 1.362a.748.748 0 0 0-.053.357 4.969 4.969 0 0 1 0 .948.748.748 0 0 0 .053.357l.561 1.361a5.955 5.955 0 0 1-.878 1.52z" fill="#ffffff" opacity="1" data-original="#000000" class=""/>
    </g>
  </g>
</svg>
