<?xml version="1.0" encoding="UTF-8"?>
<svg xmlns="http://www.w3.org/2000/svg" xmlns:xlink="http://www.w3.org/1999/xlink" version="1.1" width="512" height="512" x="0" y="0" viewBox="0 0 16 16" style="enable-background:new 0 0 512 512" xml:space="preserve" class="">
  <g>
    <path d="M14.5 5.625h-1.125V5A4.38 4.38 0 0 0 9 .625H7A4.38 4.38 0 0 0 2.625 5v.625H1.5C.742 5.625.125 6.242.125 7v3c0 .758.617 1.375 1.375 1.375h1.163c.19 1.683 1.604 3 3.337 3h.184c.164.575.689 1 1.316 1h1c.758 0 1.375-.617 1.375-1.375s-.617-1.375-1.375-1.375h-1c-.627 0-1.152.425-1.316 1H6A2.628 2.628 0 0 1 3.375 11V5A3.629 3.629 0 0 1 7 1.375h2A3.629 3.629 0 0 1 12.625 5v6c0 .207.168.375.375.375h1.5c.758 0 1.375-.617 1.375-1.375V7c0-.758-.617-1.375-1.375-1.375zm-7 7.75h1a.626.626 0 0 1 0 1.25h-1a.626.626 0 0 1 0-1.25zM.875 10V7c0-.345.28-.625.625-.625h1.125v4.25H1.5A.626.626 0 0 1 .875 10zm14.25 0c0 .345-.28.625-.625.625h-1.125v-4.25H14.5c.345 0 .625.28.625.625z" fill="#ffffff" opacity="1" data-original="#000000" class=""/>
    <path d="M7.5 5.125H7a.376.376 0 0 0-.358.263l-1.25 4a.375.375 0 0 0 .716.224l.23-.737h1.823l.23.737a.376.376 0 0 0 .717-.224l-1.25-4a.376.376 0 0 0-.358-.263zm-.927 3 .677-2.168.677 2.168zM10.25 5.125a.375.375 0 0 0-.375.375v4a.375.375 0 0 0 .75 0v-4a.375.375 0 0 0-.375-.375z" fill="#ffffff" opacity="1" data-original="#000000" class=""/>
  </g>
</svg>
