<?xml version="1.0" encoding="UTF-8"?>
<svg xmlns="http://www.w3.org/2000/svg" xmlns:xlink="http://www.w3.org/1999/xlink" version="1.1" width="512" height="512" x="0" y="0" viewBox="0 0 512 512" style="enable-background:new 0 0 512 512" xml:space="preserve" class="">
  <g>
    <path d="m143.2 320.984-39.434 39.434-11.11-11.11c-5.996-6-15.722-6-21.722 0s-6 15.727 0 21.727l21.972 21.969c5.996 5.996 15.723 6 21.723 0l50.297-50.293c6-6 6-15.727 0-21.727s-15.727-6-21.727 0zM195.621 139.41h118.242c8.485 0 15.36-6.879 15.36-15.363s-6.875-15.363-15.36-15.363H195.621c-8.48 0-15.36 6.879-15.36 15.363s6.876 15.363 15.36 15.363zM143.2 78.508l-39.434 39.433-11.11-11.109c-5.996-6-15.722-6-21.722 0-6 5.996-6 15.723 0 21.723l21.972 21.972c5.996 5.996 15.723 6 21.723 0l50.297-50.297c6-6 6-15.726 0-21.722-6-6-15.727-6-21.727 0zM195.621 260.648h118.242c8.485 0 15.36-6.878 15.36-15.363s-6.875-15.363-15.36-15.363H195.621c-8.48 0-15.36 6.879-15.36 15.363s6.876 15.363 15.36 15.363zM143.2 199.746l-39.434 39.434-11.11-11.11c-5.996-6-15.722-6-21.722 0s-6 15.727 0 21.723l21.972 21.973c5.996 6 15.723 6 21.723 0l50.297-50.297c6-5.996 6-15.723 0-21.723s-15.727-6-21.727 0zm0 0" fill="#ffffff" opacity="1" data-original="#000000" class=""/>
    <path d="M391.246 289.04V15.362C391.246 6.871 384.363 0 375.883 0H15.363C6.883 0 0 6.871 0 15.363V461.98c0 8.48 6.883 15.364 15.363 15.364h270.38c20.53 21.351 49.37 34.656 81.26 34.656 62.196 0 112.798-50.602 112.798-112.797 0-53.879-37.973-99.055-88.555-110.164zM30.723 446.62V30.723h329.8V286.59c-42.257 2.406-78.367 28.183-95.562 64.57h-69.344c-8.48 0-15.36 6.883-15.36 15.363 0 8.489 6.88 15.364 15.36 15.364h59.922c-3.34 21.39-.488 44.074 9.137 64.734zm336.28 34.656c-45.253 0-82.073-36.832-82.073-82.074s36.812-82.074 82.074-82.074c45.242 0 82.074 36.816 82.074 82.074s-36.816 82.074-82.074 82.074zm0 0" fill="#ffffff" opacity="1" data-original="#000000" class=""/>
    <path d="M429.527 355.063c-6-6-15.73-6-21.73 0-5.383 5.378-50.371 50.37-55.703 55.703l-25.89-25.891c-4.75-4.75-11.825-5.727-17.513-2.988-9.43 4.492-11.761 17.172-4.21 24.71l36.746 36.755c6.136 6.093 15.84 5.894 21.734 0l66.566-66.567c5.993-6 5.993-15.73 0-21.722zm0 0" fill="#ffffff" opacity="1" data-original="#000000" class=""/>
  </g>
</svg>
