<?xml version="1.0" encoding="UTF-8"?>
<svg xmlns="http://www.w3.org/2000/svg" xmlns:xlink="http://www.w3.org/1999/xlink" version="1.1" width="512" height="512" x="0" y="0" viewBox="0 0 512 512" style="enable-background:new 0 0 512 512" xml:space="preserve" class="">
  <g>
    <path fill-rule="evenodd" d="m465.038 491.201 34.514-35.569c6.062-6.247 5.908-16.315-.337-22.377l-95.595-92.763c-6.245-6.062-16.318-5.909-22.378.336l-.831.856-54.566-53.427c19.12-27.947 30.311-61.748 30.311-98.166 0-96.141-77.937-174.078-174.077-174.078C85.937 16.014 8 93.951 8 190.092c0 96.14 77.937 174.077 174.078 174.077 43.878 0 83.961-16.238 114.574-43.029l53.174 52.064-3.099 3.194c-6.061 6.245-5.91 16.317.337 22.378l95.596 92.761c6.246 6.061 16.315 5.911 22.378-.336zM102.941 198.252c-6.948-6.948-6.948-18.214 0-25.162s18.214-6.948 25.162 0l35.047 35.047 72.951-73.842c6.91-6.948 18.144-6.979 25.092-.069s6.979 18.144.07 25.093c-33.974 34.312-51.369 52.455-85.503 86.589-6.948 6.948-18.214 6.948-25.162 0zM182.077 60.13c71.776 0 129.962 58.185 129.962 129.961s-58.186 129.961-129.962 129.961S52.116 261.866 52.116 190.09c0-71.775 58.185-129.96 129.961-129.96z" clip-rule="evenodd" fill="#ffffff" opacity="1" data-original="#000000"/>
  </g>
</svg>
