<?xml version="1.0" encoding="UTF-8"?>
<svg xmlns="http://www.w3.org/2000/svg" xmlns:xlink="http://www.w3.org/1999/xlink" version="1.1" width="512" height="512" x="0" y="0" viewBox="0 0 78.667 78.667" style="enable-background:new 0 0 512 512" xml:space="preserve" class="">
  <g>
    <path d="M9.49 73.833c-1.493 0-2.943-.24-4.309-.713l-3.113-1.077 2.392-2.265c3.166-2.998 3.965-6.456 4.017-9.046C3.004 54.666 0 47.098 0 39.334c0-19.023 17.645-34.5 39.333-34.5s39.334 15.477 39.334 34.5c0 19.022-17.646 34.498-39.334 34.498-6.458 0-12.827-1.399-18.504-4.057-2.14 1.514-6.463 4.058-11.339 4.058zm10.871-8.755 1.148.581c5.397 2.729 11.561 4.173 17.824 4.173 19.483 0 35.334-13.682 35.334-30.498 0-16.818-15.851-30.5-35.334-30.5S4 22.516 4 39.334c0 6.99 2.814 13.822 7.925 19.238l.52.552.024.757c.088 2.719-.4 6.406-2.818 9.951 4.63-.074 8.89-3.298 9.704-3.95l1.006-.804z" fill="#ffffff" opacity="1" data-original="#000000" class=""/>
    <circle cx="56.489" cy="39.334" r="4.206" fill="#ffffff" opacity="1" data-original="#000000" class=""/>
    <circle cx="39.335" cy="39.334" r="4.206" fill="#ffffff" opacity="1" data-original="#000000" class=""/>
    <circle cx="22.177" cy="39.334" r="4.206" fill="#ffffff" opacity="1" data-original="#000000" class=""/>
  </g>
</svg>
