<?xml version="1.0" encoding="UTF-8"?>
<svg xmlns="http://www.w3.org/2000/svg" xmlns:xlink="http://www.w3.org/1999/xlink" version="1.1" width="512" height="512" x="0" y="0" viewBox="0 0 512.576 512.576" style="enable-background:new 0 0 512 512" xml:space="preserve">
  <g>
    <path d="M430.332 273.39H239.18l-.066-191.151c-.003-8.827-7.164-15.995-16-15.995-59.143 0-115.117 23.319-157.457 65.672-87.523 87.554-87.572 227.374.028 314.974 87.561 87.561 227.401 87.6 315.001 0 42.332-42.332 65.646-98.267 65.646-157.5 0-8.837-7.164-16-16-16zm-72.273 150.873c-75.056 75.056-194.654 75.092-269.746 0-75.034-75.034-75.104-194.617-.024-269.723 32.429-32.44 74.143-51.859 118.831-55.622l.066 190.478c.003 8.834 7.166 15.995 16 15.995h190.478c-3.748 44.701-23.16 86.427-55.605 118.872z" fill="#000000" opacity="1" data-original="#000000"/>
    <path d="M289.002 0c-8.822.036-15.951 7.206-15.936 16.028l.363 207.145c.016 8.826 7.174 15.972 16 15.972h207.146c8.836 0 16-7.164 16-16C512.576 100.741 412.218-.141 289.002 0zm16.4 207.146-.306-174.506c92.264 7.573 167.072 82.176 174.812 174.505H305.402z" fill="#000000" opacity="1" data-original="#000000"/>
  </g>
</svg>
