<?xml version="1.0" encoding="UTF-8"?>
<svg xmlns="http://www.w3.org/2000/svg" xmlns:xlink="http://www.w3.org/1999/xlink" version="1.1" width="512" height="512" x="0" y="0" viewBox="0 0 24 24" style="enable-background:new 0 0 512 512" xml:space="preserve" class="">
  <g>
    <path d="M19 24H5c-1.103 0-2-.897-2-2V12c0-1.103.897-2 2-2h14c1.103 0 2 .897 2 2v10c0 1.103-.897 2-2 2zM5 11c-.552 0-1 .449-1 1v10c0 .551.448 1 1 1h14c.552 0 1-.449 1-1V12c0-.551-.448-1-1-1z" fill="#6f6f6f" opacity="1" data-original="#000000" class=""/>
    <path d="M17.5 11a.5.5 0 0 1-.5-.5V6c0-2.757-2.243-5-5-5S7 3.243 7 6v4.5a.5.5 0 0 1-1 0V6c0-3.309 2.691-6 6-6s6 2.691 6 6v4.5a.5.5 0 0 1-.5.5z" fill="#6f6f6f" opacity="1" data-original="#000000" class=""/>
  </g>
</svg>
