<?xml version="1.0" encoding="UTF-8"?>
<svg xmlns="http://www.w3.org/2000/svg" xmlns:xlink="http://www.w3.org/1999/xlink" version="1.1" width="512" height="512" x="0" y="0" viewBox="0 0 490 490" style="enable-background:new 0 0 512 512" xml:space="preserve" class="">
  <g transform="matrix(0.6500000000000001,0,0,0.6500000000000001,85.75000400543217,85.75000534057611)">
    <path d="M380 201.1h-14.4v-80.5C365.6 54.1 311.5 0 245 0S124.4 54.1 124.4 120.6v80.5H110c-31.5 0-57.2 25.6-57.2 57.2v174.5c0 31.5 25.6 57.2 57.2 57.2h270c31.5 0 57.2-25.6 57.2-57.2V258.3c-.1-31.6-25.7-57.2-57.2-57.2zm-221.3-80.5c0-47.6 38.7-86.3 86.3-86.3s86.3 38.7 86.3 86.3v80.5H158.7v-80.5zm244.1 312.1c0 12.6-10.3 22.9-22.9 22.9H110c-12.6 0-22.9-10.3-22.9-22.9V258.3c0-12.6 10.3-22.9 22.9-22.9h270c12.6 0 22.9 10.3 22.9 22.9v174.4h-.1z" fill="#717171" opacity="1" data-original="#000000"/>
    <path d="M245 307.2c-9.5 0-17.1 7.7-17.1 17.2v44.3c0 9.5 7.7 17.1 17.1 17.1 9.5 0 17.2-7.7 17.2-17.1v-44.3c-.1-9.5-7.7-17.2-17.2-17.2z" fill="#717171" opacity="1" data-original="#000000"/>
  </g>
</svg>
