<?xml version="1.0" encoding="UTF-8"?>
<svg xmlns="http://www.w3.org/2000/svg" xmlns:xlink="http://www.w3.org/1999/xlink" version="1.1" width="512" height="512" x="0" y="0" viewBox="0 0 512 512" style="enable-background:new 0 0 512 512" xml:space="preserve" class="">
  <g>
    <g fill="#000">
      <path d="M209.552 386.103C112.201 386.103 33 306.902 33 209.552 33 112.201 112.201 33 209.552 33c97.35 0 176.551 79.201 176.551 176.552 0 97.35-79.201 176.551-176.551 176.551zm0-317.793c-77.877 0-141.242 63.365-141.242 141.242s63.365 141.241 141.242 141.241 141.241-63.364 141.241-141.241S287.446 68.31 209.552 68.31z" fill="#585858" opacity="1" data-original="#000000" class=""/>
      <path d="M461.887 479.543a17.606 17.606 0 0 1-12.482-5.173L313.566 338.531a17.647 17.647 0 0 1-5.17-12.482 17.651 17.651 0 0 1 24.408-16.309 17.65 17.65 0 0 1 5.727 3.827L474.37 449.406a17.636 17.636 0 0 1-2.661 27.175 17.63 17.63 0 0 1-9.822 2.962z" fill="#585858" opacity="1" data-original="#000000" class=""/>
    </g>
  </g>
</svg>
