<?xml version="1.0" encoding="UTF-8"?>
<svg xmlns="http://www.w3.org/2000/svg" xmlns:xlink="http://www.w3.org/1999/xlink" version="1.1" width="512" height="512" x="0" y="0" viewBox="0 0 64 64" style="enable-background:new 0 0 512 512" xml:space="preserve">
  <g>
    <path d="M28 38a2.004 2.004 0 0 1-1.41-3.42l28.5-28.5c.78-.78 2.05-.78 2.83 0s.78 2.05 0 2.83l-28.5 28.5c-.39.39-.9.59-1.41.59z" fill="#ffffff" opacity="1" data-original="#000000"/>
    <path d="M38.45 60c-2.4 0-4.46-1.45-5.24-3.69l-6.36-18.25c-.15-.44-.48-.76-.92-.92L7.68 30.78c-2.24-.78-3.69-2.84-3.69-5.24 0-2.58 1.66-4.89 4.12-5.75L52.48 4.34c2.11-.73 4.37-.24 5.9 1.28 1.53 1.53 2.02 3.79 1.28 5.9L44.2 55.88c-.86 2.47-3.17 4.12-5.75 4.12zM53.14 6.22l.66 1.89L9.44 23.58A2.085 2.085 0 0 0 8 25.55c0 .41.13 1.15 1.01 1.46l18.25 6.36c1.59.55 2.82 1.79 3.38 3.38L37 55c.31.88 1.05 1.01 1.46 1.01.68 0 1.6-.38 1.97-1.44l15.46-44.36c.33-.95-.12-1.54-.33-1.75s-.8-.66-1.75-.33l-.66-1.89z" fill="#ffffff" opacity="1" data-original="#000000"/>
  </g>
</svg>
